# xmcd
#
# Track frame offsets:
#	150
#	12785
#	26798
#	45252
#	58044
#	77401
#	93122
#	107256
#	121543
#	140289
#
# Disc length: 2027 seconds
#
# Revision: 0
# Processed by: cddbd v1.4PL0 Copyright (c) Steve Scherf et al.
# Submitted via: dBpowerAMP V4.0
#
DISCID=6207e90a
DTITLE=Ken Holloway - He Who Made The Rain
DYEAR=1900
DGENRE=Country
TTITLE0=Good Lovin'
TTITLE1=Not Enough Amazing Grace
TTITLE2=Don't Wanna Go Alone
TTITLE3=Hoedown
TTITLE4=I'm Not Gonna Fall To Pieces
TTITLE5=He Who Made The Rain
TTITLE6=Rich Kids
TTITLE7=Snake Oil
TTITLE8=Momma Left The Light On
TTITLE9=I'm Still Holding On 
EXTD=
EXTT0=
EXTT1=
EXTT2=
EXTT3=
EXTT4=
EXTT5=
EXTT6=
EXTT7=
EXTT8=
EXTT9=
PLAYORDER=
